<svg width="83" height="75" viewBox="0 0 83 75" fill="none" xmlns="http://www.w3.org/2000/svg">
<path d="M23.4419 20.8337C15.2747 22.2319 9.67577 29.5489 10.5728 34.9958C11.4725 40.4443 17.3646 34.8993 25.5319 33.4997C33.6965 32.0985 41.0411 35.3768 40.1442 29.9285C39.246 24.4801 31.6093 19.4328 23.4419 20.8337ZM17.5171 17.7685C20.0001 17.1169 20.8101 11.8711 19.8723 8.19232C18.9341 4.51637 16.1597 2.06714 13.6764 2.72152C11.1944 3.37744 9.94239 6.88913 10.8805 10.5651C11.8185 14.2424 15.0323 18.4241 17.5171 17.7685ZM27.5665 15.9595C30.1307 15.9766 32.2512 11.1204 32.2858 7.31802C32.3215 3.51853 30.2702 0.42676 27.7063 0.405407C25.1419 0.389629 23.0331 3.4552 22.9988 7.25482C22.9659 11.0546 24.9994 15.942 27.5665 15.9595ZM39.86 6.00385C37.3089 5.76009 34.9485 8.62864 34.5871 12.4111C34.2254 16.1963 35.831 21.2426 38.3807 21.4862C40.9333 21.7301 43.464 17.079 43.8257 13.2938C44.1886 9.5101 42.4126 6.24774 39.86 6.00385ZM3.16877 12.2908C0.834189 13.3701 0.201014 17.0478 1.75922 20.5045C3.31347 23.9581 7.1993 27.5106 9.53261 26.4299C11.8673 25.3492 11.7666 20.0431 10.211 16.5894C8.65559 13.1329 5.50067 11.2099 3.16877 12.2908ZM59.5219 56.2134C51.7676 53.2911 43.3103 56.8021 41.3981 61.9806C39.4829 67.1602 47.3183 65.3323 55.0712 68.2544C62.8257 71.1753 67.5598 77.7356 69.4721 72.5557C71.3872 67.3775 67.2736 59.1339 59.5219 56.2134ZM65.9196 54.3297C68.2314 55.4394 72.1817 51.9422 73.7991 48.5091C75.4165 45.0759 74.8521 41.3906 72.5391 40.278C70.2248 39.1638 67.0395 41.045 65.4221 44.4782C63.8047 47.9113 63.6053 53.2155 65.9196 54.3297ZM56.3965 50.645C58.9177 51.1137 61.8411 46.7013 62.5255 42.9638C63.21 39.2263 61.7242 35.8158 59.2031 35.3471C56.6817 34.8812 54.0833 37.5301 53.3945 41.2686C52.7099 45.0075 53.8754 50.1762 56.3965 50.645ZM44.727 54.0248C47.281 54.2689 49.8117 49.6178 50.1733 45.8326C50.5347 42.0501 48.7589 38.7864 46.2063 38.5425C43.6537 38.2986 41.2919 41.167 40.9303 44.9522C40.5689 48.7347 42.1773 53.7812 44.727 54.0248ZM81.0445 51.6639C78.9567 50.1607 75.4975 51.4518 73.3173 54.5499C71.1385 57.6482 70.0334 62.8391 72.117 64.3419C74.2048 65.8451 78.6931 63.0927 80.8732 59.9959C83.0534 56.8978 83.1296 53.1669 81.0445 51.6639Z" fill="#EBC465"/>
</svg>
